<mxfile host="65bd71144e">
    <diagram id="m8zUEpIXVqUEx7tszL4q" name="第 1 页">
        <mxGraphModel dx="766" dy="609" grid="0" gridSize="10" guides="1" tooltips="1" connect="1" arrows="1" fold="1" page="0" pageScale="1" pageWidth="850" pageHeight="1100" math="0" shadow="0">
            <root>
                <mxCell id="0"/>
                <mxCell id="1" parent="0"/>
                <mxCell id="9" style="edgeStyle=none;html=1;exitX=0.5;exitY=1;exitDx=0;exitDy=0;entryX=0;entryY=0;entryDx=0;entryDy=0;movable=0;resizable=0;rotatable=0;deletable=0;editable=0;connectable=0;" parent="1" source="2" target="13" edge="1">
                    <mxGeometry relative="1" as="geometry">
                        <mxPoint x="330" y="400" as="targetPoint"/>
                    </mxGeometry>
                </mxCell>
                <mxCell id="29" style="edgeStyle=none;html=1;exitX=0.5;exitY=1;exitDx=0;exitDy=0;entryX=0.5;entryY=0;entryDx=0;entryDy=0;movable=0;resizable=0;rotatable=0;deletable=0;editable=0;connectable=0;" parent="1" source="2" target="8" edge="1">
                    <mxGeometry relative="1" as="geometry"/>
                </mxCell>
                <mxCell id="2" value="addr" style="whiteSpace=wrap;html=1;aspect=fixed;movable=0;resizable=0;rotatable=0;deletable=0;editable=0;connectable=0;" parent="1" vertex="1">
                    <mxGeometry x="290" y="210" width="80" height="80" as="geometry"/>
                </mxCell>
                <mxCell id="11" style="edgeStyle=none;html=1;exitX=0;exitY=1;exitDx=0;exitDy=0;entryX=0.75;entryY=0;entryDx=0;entryDy=0;movable=0;resizable=0;rotatable=0;deletable=0;editable=0;connectable=0;" parent="1" source="6" target="8" edge="1">
                    <mxGeometry relative="1" as="geometry"/>
                </mxCell>
                <mxCell id="6" value="addr" style="whiteSpace=wrap;html=1;aspect=fixed;movable=0;resizable=0;rotatable=0;deletable=0;editable=0;connectable=0;" parent="1" vertex="1">
                    <mxGeometry x="440" y="210" width="90" height="90" as="geometry"/>
                </mxCell>
                <mxCell id="7" value="b" style="text;strokeColor=none;align=center;fillColor=none;html=1;verticalAlign=middle;whiteSpace=wrap;rounded=0;movable=0;resizable=0;rotatable=0;deletable=0;editable=0;connectable=0;" parent="1" vertex="1">
                    <mxGeometry x="455" y="180" width="60" height="30" as="geometry"/>
                </mxCell>
                <mxCell id="8" value="n: 1&lt;br&gt;x: addr" style="whiteSpace=wrap;html=1;aspect=fixed;movable=0;resizable=0;rotatable=0;deletable=0;editable=0;connectable=0;" parent="1" vertex="1">
                    <mxGeometry x="290" y="410" width="80" height="80" as="geometry"/>
                </mxCell>
                <mxCell id="12" value="给这个对象的x赋值" style="text;html=1;align=center;verticalAlign=middle;resizable=0;points=[];autosize=1;strokeColor=none;fillColor=none;movable=0;rotatable=0;deletable=0;editable=0;connectable=0;" parent="1" vertex="1">
                    <mxGeometry x="250" y="490" width="130" height="30" as="geometry"/>
                </mxCell>
                <mxCell id="13" value="n: 2" style="whiteSpace=wrap;html=1;aspect=fixed;movable=0;resizable=0;rotatable=0;deletable=0;editable=0;connectable=0;" parent="1" vertex="1">
                    <mxGeometry x="475" y="410" width="80" height="80" as="geometry"/>
                </mxCell>
                <mxCell id="14" value="" style="shape=image;verticalLabelPosition=bottom;labelBackgroundColor=default;verticalAlign=top;aspect=fixed;imageAspect=0;image=data:image/png,iVBORw0KGgoAAAANSUhEUgAAAK8AAABlCAYAAAA74bOnAAAPRklEQVR4nO2df3AU53nHPyRuE9IODeWOHjrHICGcXrBjBQFTU9ThfJ2YXECFGsEkE000slVf1Ew8/UORRqbq9UIZKaR14vGoZyvFqjUTBgSBUTCFDLI0hYJHIKEa5AuWAGN8x8V3VIapLedX6R97K+3t7a/7gaSV38+Mhrt9d5/32Xe/7/M+u/e+y7y7v4ndZYZJHGvnRbaz0++YaVdmlEhHiPNrWqgu09khfopdYXg6WIEzz7r02jzSEeKQu56dfugNHoBAPT5XAXxXM9zNrphXqn+4m5owNIar8GThw30Wq7LOcDc14Ujqi2fSIUjSG2ynK67Yt7yKzjqPgbEIXYFLFFUm6OpJAuALyA2Ubq+0sp6dfod0UaJOGIwwVu6lOtpHV1zph1Fd3fSSbi/jnFxe9sjiiZ9iV7CPsYxjklKjr3XS1RMxtofKt9gpdoUlm2nH6JA41k5DRtugUY+D6mA9PpQ+t1PToyhzgcMt15cgFneyOk006W3kC7RQjaKOwVCqzEJ7l1WxU/a17CF8XJosMvJBeb6FFW8qMjSGWyTHh7upCZ5iT7ACjh2gy11FZ9CTuuhxnlAId6xHbkhUoo5wlno6w46U/VMkyipIdrRzdm09nZNiaaerqIWNwNggNAa9HAr2EQvUU33kALE48LMQbYPpLssXPHGsj+uVsj3VOR1xsSdchVNuvA6H5J+rgp3hitSOkmB7V8lRIklX1EtnuArpovcR8VfhUbeRit6euFSW6hgRv7EInP56Ov2pyJdWkqT3SILqYIsqakk+60Vep9/L0kA7NT1qASbpDXZDoIXOtOhaRWdYJ/KqOjeQ3vllhi/R63Kx0dSHCMd7nDSG6/FQcPHGGSt/aKqysofwhS+RBMwSAv0o4+EJeburgp1BgCRvRB08ulne38EX1zo4G0umbHnxEAGXl41l8MaRlKW6FjrrtOt3FjkZC7dTE00fDRJDFxmLJ2kI9E3tXC5/SI9E4KBa+XmzbMdDddgzaY/K7bqC9AVSF8vlYClxnb2s4KDInaQtGCKmjsi6SOdDpZfSnouTHf78mhaqXRHO4uVpq2kBqDq3DvFT7AonqA5WpQRt4EOZkyJXhLZAO9XB+nuQNujgLHJCTzc1qcjnC2hHnntJpEM/8lImRRCGu6kJdKdFf72OFenopndyv1SqMIuQO2ukI0RNWCOtUDN8STofv4cEF2kIhpA6YY4OmEXeVPnSgGJ0MPTBgS/Ygo8kvcFQgcXrclE6eIlInQcP0lDc63qYjUDkXMS88SwjRZVDQ0l8fgfScJJkacABMf2jjCLvJGVVdAZPsSucJAE4Vz0MBsN3qTs1AA730RVHEXm1kSK8eTpQSDx1Lexxt/NiLAllU51wLJogY0yMps7bX09jNEQb3pSwHCyNd3N8uEL3Gl5X2TeOvBG6UsLNsKfrg4wk4gKLt4KnK9tpCIRSGzw0hqVe5lzjoS0cUgyxFiKBAZ66qlReJH0vraxnZxkkDMRrhDoq+wItUnTIOKcpvz2bvRBM+VDupdqVMK+orIo9GW1kImRVBGsI9E2ODGl+D4bonbz5Uqc0HhrDU8Jy+r34AvJImDqmrIrGc6GpFKncS3W0m5oOqa7qoJddwRA1qnYAVVtYOKdIR8o3hSakEc7Ah83JtHaYNz2PypIZjzwSx9ppiHpNnjYIBPoUVLw1iuikpDPckvaIA0jLffSOEwiMmKbIKxAUnk/MtAMCQa5M26OyXKkJhOgMt1je1wyrtqz6o1WnXK61r9H3bLbl63c2trPdx+w65HsuMrM+bcjnwpkdm4vYlcdoidSqYM3EZORbvu2RjbiyEX2hOoJVCh55lTdmVn6bzxa9SKd3QYwio5WGVn+3Gl3UdSn3lz/L/5qJoFAXXOu8jWyr/dQqVx5rtQObYTjJRzE5qcDijXC8B+n3dE6xKxwh4c9tBpTWxdZrfBmliJXRTb3Nav16F8Dosx7ZpAtGgi9U1NKyrbafjQDV/puNMIWgwOJ1UiT/EhKPM+Z+KOepe+oTtzrUaTWU3gXRQ6vB1cLXEpNWp8rnwulFslzQCwBGaYGVbUpb6n3MRhhDMmbXkTaLsCHQV2jxOvBtcVITDNFlMN2x0FFEbVdtW2+7ng2jfbQiulaU0RO7VZ+y3d8Mtb9GdXWGW0xTAKN2stoZjNCaXecLtuC7Z2lDalJxdaWDroEkCSIcD1xiteKnQqObm3zRipZa2/PBTAB655RtDqglEL10Q23fDD3xmaVKynrudUpgZXZdQcUrT77xlSVhoJ2GANK0xBxsZSvybHp2vkO5MvoUqjOa3TTdC4xsa90vqMuMOsF0UPCnDfLMIl+wiligG7ak37DpNYiabHu21cc5+ZJLHmeWP5q1g5GdbG5CjWzr+WSWx+uNdvf0hi0eJ0mBxaue6eWr9HI9HKJLNXssG0Fmc/JWbjLybUi9nFdZXzZPFswwE2Y+4rBiW4nV88j3nA1xVfBEeYi2QKHn8+KhOtySPqfVbzKT3gC93mvlkZTWsfdqODNKGwrRWWT0Im82aD2S07NvduNlRbi5jAyeOuVChalVKMryzrppmlUmEChZ/+gjPPXNv9Isa/2Xf+cXb123ZGfW/zwsEOghZpUJbIsQr8C23Mevx8z3EghmIfPu3r0rcl6BLRFpg8C2CPEKbIsQr8C2CPEKbIsQr8C2aIo3Eolw586d6fbl48X5VopLVlBc242Fl0QZcmsflM+D8u+lbx9qXUFxyQpqD+Zbw+xEU7wDAwMcPnyYaDQ63f58TEiwv/0KrWdGuba3Kq+3nL/xPQgBP/9JZtmqplGundkN3/03hvKoY7aiKd6tW7cCcPLkSQYGBiwbe+/gyxxsG1FsGaFvwU+JAET7ObrgRxxM/R1VRIP3Dr7M0YP99Mnl3+znPbPKbr5OnXs/7tRf3ZFfphUnDtZRXNJq/aLJkTD1t/u8+SH5sZwVqlfVD7XWsf/glB/qiDnUmhmpv/j38KOvGVTjKqW0YD7PLjTFu2DBgkkBRyIRywJevG0ti/7pMvKL5Dl3mVvPfl6a3ubewKY7z7DtzjNsu/N1Fv/sKAOKwP5R7f/gSpWv/MJ/M3LOpLIlf0ZHdAfR6A6i0Q34/+N1Dt+05KY2q5u4dnU09XcAtpsLXx6Wsxf9u1zp19reT9Ox5QxcLWTEvJ/lG64wms97qmcphvN5FyxYQDQaxe12WzS3EtezJ4mfA88aiLx2g0WP/XWqbIS+BSe5NWWdB3ZPHfnpvRWTczg9jc9YeHftmzzvvkjblAVeCE6VOrd1cG2bRbcB4t3Urmtm6v3nT5ouX1rVNMq1pizqQBoR1n53OYeuNrFKo7yuPpVGuEop5UpmfdlVBzjZsXc3+2tXUPzgAa41fSlrC7MVzch7584dent7iUajbN26NQvxgucbj/DBayPACPE3H2HlGml7pO0kt579y8nI+8DW/Bwf/OFF2hoenoy8L2zKx1qC/c3N8P0zk5HX7B3UkFvkdW7r4NrVxzmeTUqTFwn21zbD7tE5JVzQEe8rr7ySk3ABcK9k8ZuXiZy7zAebV7JYUfTp5alv507xzuEcPVbgX7ZI+jB0kW8fTS+Tct469mcxXJYuc6aObafDwv6rmkYVqYb017zaSk33s3yDdb9ktHJec97lSn9mfj0X0BTv2rVrcxMuAE6Wbb7NiO82ix+duo/2fOMRqP2JdEP22h/nHXnLdyyFv+2Xbtj+8w8zIq9z2XKgnxOnrVxqJzvqn6RjuxQ9G/mypcg7G5Afk33560CL9Pm512faq+lhDs8qu8DuknaWn+lgx6yLOvJQPg2+xbupXXeFb+vk2HZmTv7CJqUM2+HAbBQuSJF+OU3rCvMjhR5DrSsoXtcM339yzgkX5nTkFcx15mTkFXw8EOIV2BYhXoFtEeIV2BYhXoFtEeIV2BYhXoFtEeIV2BZd8U5MTHD16tXp9EUgyApN8Y6Pj3P69GlisRgTExNZGz3Sc9R8pzQS0nzTe7yCYfCH+3C792Wsupjra73mKhniHR8f5/z588yfP5/169czf/78rI0e6XmV1j3PkUzeMt8ZGGpdxwn/mSymFGbLCM+79/Fff/EYL2yChx/4k7TSybVex/rv2TwDQeFJE69auPK206dPMz4+npXhX1x+i9YfPGchCicYfWsDj69XLEMceoma8AUi4W9R89S3qHnqH+lVzcsdal1BcesFi96s5DvRr/GdVUluHHXw5xqzVBKnfw7+DXkthhRML2niVaYIuaQLapLJWxzpeZUfv/yKfhSO93NCa7L0+Zc4dP8/0Pnjf6VxdZxYTFmYYPStHBwaitG26Q/4nEbRjbH+ycnoAnuQJt6ioiJWr17NxMQEg4ODTExMsHDhQtavX8/ChQtzriSZvIXDsUi19QK7S1ZQ3AxtqrmmidhNWFLJ05tcQJxY1EVRkfJYJzv2Zr+s5b13/hc8f5S2ukNmVdMB2J5NNBfMNBk5ryxWWcD54HAsYkvlV2lq+DuN0i/RfHWUQw8206G6SUu+G8e39SupIfwmsZtLpv5b2Dy48fZH+Jdp/UfeF9hdcoKNV+feOq+5jObTBjnnLSkpydnwn37+QX7QuostldmujFRF2nic60s+h1Jyua3l+iXvRDJv1gA4f4KOv3l8Tk7YnsvoLn2fP39+Tk8aALZUftWiaC9w/KUn2ahcPh6/wNmbS3hCjrSxG4y51+RxIzXC8+43ppbIH91H26alXHhx3WT6kHj7Ct7S+3OuQTAzzOxKing3tc3Qlucrj/JjGteTCQrKzP487NrA4zSzdlper5SJ9OPEOk74dwvh2hCxhk1gW8TEHIFtEeIV2BYhXoFtue/27dsz7YNAkBPihk1gW0TaILAtQrwC2yLEK7AtQrwC2yLEK7AtmuK98PZvef9D8RBCMLvRFG/fm79lb/+vuJb43XT7IxBYRvM57/sf3mVv/68AKFv6SR5b+XvT7phAYIZm5P3sZ+ZRu+FTAAxf/x2vjfxmWp0SCKxgeMP22c/MY/yDuxQvFvd1gtmHpirf//AuPx34NdcS/0ftht+n2PnJ6fZLIDBFcw3bP7/6EYAQrmBWoyle7xfuo3jxJ4RwBbMaMatMYFvEnZjAtgjxCmyLEK/AtgjxCmyLEK/AtgjxCmyLEK/AtgjxCmyLEK/AtgjxCmyLEK/AtgjxCmyLEK/AtgjxCmyLEK/AtgjxCmyLEK/AtgjxCmzL/wOUttk9hCBTDwAAAABJRU5ErkJggg==;movable=0;resizable=0;rotatable=0;deletable=0;editable=0;connectable=0;" parent="1" vertex="1">
                    <mxGeometry x="600" y="265.5" width="175" height="101" as="geometry"/>
                </mxCell>
                <mxCell id="15" value="&lt;div style=&quot;color: rgb(212, 212, 212); background-color: rgb(30, 30, 30); font-family: Consolas, &amp;quot;Courier New&amp;quot;, monospace; font-size: 14px; line-height: 19px;&quot;&gt;&lt;div&gt;&lt;span style=&quot;color: #569cd6;&quot;&gt;var&lt;/span&gt; &lt;span style=&quot;color: #9cdcfe;&quot;&gt;a&lt;/span&gt; = { &lt;span style=&quot;color: #9cdcfe;&quot;&gt;n&lt;/span&gt;&lt;span style=&quot;color: #9cdcfe;&quot;&gt;:&lt;/span&gt; &lt;span style=&quot;color: #b5cea8;&quot;&gt;1&lt;/span&gt; }&lt;/div&gt;&lt;div&gt;&lt;span style=&quot;color: #569cd6;&quot;&gt;var&lt;/span&gt; &lt;span style=&quot;color: #9cdcfe;&quot;&gt;b&lt;/span&gt; = &lt;span style=&quot;color: #9cdcfe;&quot;&gt;a&lt;/span&gt;&lt;/div&gt;&lt;div&gt;&lt;span style=&quot;color: #9cdcfe;&quot;&gt;a&lt;/span&gt;.&lt;span style=&quot;color: #9cdcfe;&quot;&gt;x&lt;/span&gt; = &lt;span style=&quot;color: #9cdcfe;&quot;&gt;a&lt;/span&gt; = { &lt;span style=&quot;color: #9cdcfe;&quot;&gt;n&lt;/span&gt;&lt;span style=&quot;color: #9cdcfe;&quot;&gt;:&lt;/span&gt; &lt;span style=&quot;color: #b5cea8;&quot;&gt;2&lt;/span&gt; }&lt;/div&gt;&lt;br&gt;&lt;div&gt;&lt;span style=&quot;color: #9cdcfe;&quot;&gt;console&lt;/span&gt;.&lt;span style=&quot;color: #dcdcaa;&quot;&gt;log&lt;/span&gt;(&lt;span style=&quot;color: #9cdcfe;&quot;&gt;a&lt;/span&gt;.&lt;span style=&quot;color: #9cdcfe;&quot;&gt;x&lt;/span&gt;, &lt;span style=&quot;color: #9cdcfe;&quot;&gt;b&lt;/span&gt;.&lt;span style=&quot;color: #9cdcfe;&quot;&gt;x&lt;/span&gt;)&lt;/div&gt;&lt;/div&gt;" style="text;html=1;align=center;verticalAlign=middle;resizable=0;points=[];autosize=1;strokeColor=none;fillColor=none;movable=0;rotatable=0;deletable=0;editable=0;connectable=0;" parent="1" vertex="1">
                    <mxGeometry x="330" y="55.5" width="190" height="110" as="geometry"/>
                </mxCell>
                <mxCell id="19" value="a" style="text;strokeColor=none;align=center;fillColor=none;html=1;verticalAlign=middle;whiteSpace=wrap;rounded=0;movable=0;resizable=0;rotatable=0;deletable=0;editable=0;connectable=0;" parent="1" vertex="1">
                    <mxGeometry x="310" y="180" width="60" height="30" as="geometry"/>
                </mxCell>
                <mxCell id="26" value="" style="edgeStyle=none;orthogonalLoop=1;jettySize=auto;html=1;movable=0;resizable=0;rotatable=0;deletable=0;editable=0;connectable=0;" parent="1" edge="1">
                    <mxGeometry width="100" relative="1" as="geometry">
                        <mxPoint x="350" y="460" as="sourcePoint"/>
                        <mxPoint x="470" y="460" as="targetPoint"/>
                        <Array as="points"/>
                    </mxGeometry>
                </mxCell>
                <mxCell id="28" value="分析过程:&lt;br&gt;先给a赋值{ n: 1 },&amp;nbsp;&lt;br&gt;再给b赋值{ n: 1 }, &lt;br&gt;指向同一个内存地址;" style="text;html=1;align=center;verticalAlign=middle;resizable=0;points=[];autosize=1;strokeColor=none;fillColor=none;movable=0;rotatable=0;deletable=0;editable=0;connectable=0;" parent="1" vertex="1">
                    <mxGeometry x="617.5" y="55.5" width="140" height="70" as="geometry"/>
                </mxCell>
                <mxCell id="30" value="原来指向,&lt;br&gt;后又改了" style="text;html=1;align=center;verticalAlign=middle;resizable=0;points=[];autosize=1;strokeColor=none;fillColor=none;movable=0;rotatable=0;deletable=0;editable=0;connectable=0;" parent="1" vertex="1">
                    <mxGeometry x="285" y="335" width="80" height="40" as="geometry"/>
                </mxCell>
                <mxCell id="31" value="" style="shape=image;verticalLabelPosition=bottom;labelBackgroundColor=default;verticalAlign=top;aspect=fixed;imageAspect=0;image=data:image/png,iVBORw0KGgoAAAANSUhEUgAAAKIAAAAeCAYAAACv+sUVAAAWyElEQVR4nN2ce7RdVXWHv7nWPo97b54kJDzCaOSpQkFataOipLYoorWlo4qPFuxDrEJrUTsqAYxoqa0ES2lQQBSM7ydDlKF0WEVt8QXUB6gIIsgrgZAQktzcc87ea87+sdbeZ5/HvSQXdbSdGWecc/fea6255pprzt+ca+7I5MtPNMsLVkqTH3zqCywkkQHC45IBwWB6JmfVr62mp0JwDUwErZ5yA502QhtnDZBAkACAIAgBCJiBiFCIAZ7MDMEICCaKJd4Mw0RSvzbK2Cz8ZzZ8RRBz1eMKBLGR5q7eTsrZxbHF4nAigll8sGeORQsXccV7r+CvTn81nemdmIxwWo2Zeqjum6QrRnX3V0H98XXO50ZJKKVWl5VJfw4AOmYiWZHnNHyGiN/LQfvkKIXkcOKjwlRslYIVvEGBUUgPkRxnEDCsXEUzMEPEMBxRJEoepxP7MgUsKiP9VRVxmBniJD0dAJ/aQX0ZvRmZKc4MwaUZhIE5GYpRbiFNHweMWRwxxAyvhnegqiBCrkJzOvD6P30Z0u0y6R1BojzqC+WAQuIvwyFxiyWuBW9RdjJOg38JZAIqiqJjlSbyNdKKQhw98QRxaG0T7QnfWYaj7TMkzH+WQeKSi0XGVYSGCpNBaIYCQ2niWVQYOzJDBZw5TAxFoyLuBQmGApaslgKFTNBrODpWlA8BRfqZxGaRx4VFjxetXs1zVx9CWxVfqWqySFKq2zBfoexklCkDk7j1hu8K4BG8jF9VZ+OtRLxnmJSbch40n2bJ2+hsGw9oaL9jZ4Y5+CkN1t/4nzxkgLg5FHDUXWVZI8OAvCjmwXG/OxszqCewZv+VnPSUp9AulIYqeW18lyxNvDQ6YTOr3Nz4gQURR+4zbnt0F1d9/xZmWo0ohIEV6P8OogSMQ0KPE1xOy2zEjfTt0bDLl+HuBu7MxmpJOounE+qWd+iegbk6tNk7MpuvQ1fGQp4x5E2QosX+medjvR5bsyaFlF4xmsZKTyh/DypjJgghhHnjj7nYFJQnteB3spylIuyyfHDR6VsrN4YDq7nefqdxr3oTnIEzJXfC0n2X8KFiBmu1kvzGcyYGjowJhKlujx3BuN0JSglNovBt7CIIcyG1udbcAHM20mP5d2aePpYeHDMURWW195bmZ0cjJIo0fvdkkng1Y6EpR3ijkedoKCBrAtButTnphSdx7Wc/izP6+Fjrso3fmZniDdwsbuOJkdAWR3tmmh6OL953H7Sa/amaIb6PJwZbjrlYUsJjLYSjly3jIAmEvI8PYRQgl+RE8BbIaBGcctuOnbzx299lV+bBpLZbZ7GGszBVhkyzkZWos24aEmVxa9VGtFp/ghMF87OOPRftLezp09wW0ZsjE4+EHk/L4N+efyJaKJiLMAUja2QceuihSDIKMcjsy7butTLnHF4H3dMvksw85jI2O7jsJ3exzflq+KBK4ZQwRljJ8/bxXY2iJYTFCuuefRyrmg7TFFpoudg21igqceEzZ5gzuhaYbk6wqeURq1ukcdZwtntzq0hkZ9SalpAkswhZNMGCen+O6PqixZ6PIu51EwY34vi5BnO0pInPpwlNCC4GOIgkxYvy16CIxcAPScpoOqCEIkJmZnjvnlCwUmdw5FoC4tMeHm3A5uZk3yWHmCaxcR4pPTOqDoagUWkKpZCMx7NWw1SHBOXfzgSVMeZq4Kny20buPJ5FRASXUkSSMgVmEb4EUXJpDDhmreUNQgUX9p72ps0gfksueUwKRxA08S1iI4FW3HhWBX/Qd8tmFuO9mgc2gyzPc0RhkTQHl7GGy8cub5U2SRFzZb1qymPRShkN1BkzXgk+Q1Nk6hyIGU7G2b1yoWZBVcnMR0FoFUFHKoVXqsegmtgA7okuPaYaFHMxDVRClfH2wEauuNrTOvKsJKgRsacli+FQHAWC4iTrtzDDYYhp6qGMXt18Y2f67rD/2w3IQQjiqydGnVRUzpici79MGjgHQUNtntHlOomeT2XQypT5CdNBKOW8zzAnEa8xt0Mae8OivhVE81y6w9wLuYOgXRpOyWjgaaNFQIuAhUDQgsKUYAWFFRQW0qegUEUtEDT0r1OQW0FugUAPLIBGvjMgF8NpNMGZCpkZmcU8XGnITB0FRo+At5h6UtMYocOA27BKEaJy6MAnooCkU6gZpoZZiHylnR9NgcW5mBKsDIQKlrc387GLn8Y1V76Iww5ZELND6qrlFHya2fi00N5QTPynwFCgJYEjFrR41rIFHLd8ioPcbibVUIkjafm8+Yj7EByBDe98Jf/x8ZfyrKdtR6wTZZv02YlEHGwaLT0RUiilJSxnocnS9j9ZUeS0XIZ3/T29V7BCwOtoPFnawgpyi0CKdMVBcGUIlUC8lWnxvridWWwnoBbSIHE/muaYeAxFzEcIYH18JTVwJEmgpT6qSZWuNvr5LrGYSnYoIiXctNqeKy2T1PotMangiScsZoaJplznKO5QERoYq/drcvivLeWK93wD6eY1axX701IhRSoey/URJ6hGPssUTX/TBHCxTR0jlvNvGBy8cB/O/stX8Ni9d7Pvwib7LVvKay77DHfNzNRsW9m+72RvveUOdt+7mdNPPozvfP9enCys7KqZYlqeERlmUq1f1E9DXFrCIS1zzse0hc6W5KrLpv53XWMlHpvVzbmr/V1vHtUIVh1xOGv/+R/516uv4PyL38mifRenXZIcnRPwDhNlybIlXLXxA+y7/0oQ5fwL/oHXvu4MIpIa3TZiis+VZt4ky1v4nqeRO9rawJtnJIqRFCGa8cynP4OPffTjfP6z13LBP7yduD+jbFxK8ZYfr0YrONpFRiN3NHstWr1J2r0pJsJk4mVUnHFTKkiPhx/N+NgXHuDue7vlCiEmcVOk1ReErNFg48aNHHH44Wz84Ae59trP8dSnPJUSFIQQ2LBhA5/6zKcfN0DpivCT3Ts5c8NlnPPJa1h75dV0d+3i0OUL8Qm4jC65Q63Nhz/xLb70zdtYOOlpCRSWpGMwOTnF1R+4mgMPPKDW0A13NFYmmZmhZcQ5Gw1PrNp6/c5Le1YNUromIszWtNDmDHOOFcuX896r3kenN8MFF1zAwUccwfce+XYtvI9pAC+ebVu28p3vfIdL3n0pZ69dy3PWHM/LT15PlqzFMHnzHHvY0Zxy8qmoQG4FjoJOd4Z3bFg/OtdkmQVl8aIFrFt3Ht1Oh/UXXcRxv/3b/OeN3xzKpjkwwVvGwQcezGmvPA1xgut6zIRce6y/5CJEAubi8Z9Jf3nFApnkeA/buzmdZgOzJubKU5a+VQQwjceRRz31qZy/7q2ce+45HHnUUbzt7W/jJS95aWWtVu6/H6tWrSKi9jmOJInJ9Q6OzDdoemGyvZhOkUeY4hq1Ra4rgKMjDXquifc9Guyk0EkynzaQwOrVq3EuRvjj1gYZVXKAzIkjyxwS5hXn1/ov/9XdtKXTkRT9JSuNN+68404WL1vMUcc/i6Kd8dDWh+LEh9IcJoLLGlx+5Xt53p+8hCs/8iHWrV3Ltm3bWSmuGstMK6tuIvzorgd494YrYnCAYBJQ2Y33guigKAwjS+L5+pe/wkEHr+a4Zx9Hs5mxcuWKhHkguvJ+GsVhbH1oC+99z0YIig+AGV2fMyMpuDBFRPBmICHyU3R43Wuexal/sJJ/ufiLdLUyhikCrcEKSzlei1bvvPPO5Z577gERli9bDkER73Dec8pLT4k+QhJ36XvsqRVGpoEDi4K3vOYvuenBB7j1/s2Yn0jGRNJ6lbguuWprct8dj3DQAQdx5Tt/g9f/3bV4ncDMmN69m+edcAIPNlrVKHt6QJ5lmUfzgJDtUYOxJP2vuhqN8+g5yjHPeQ5/ftqf8YGPfJjbb/8xL/7DP2DTffeDCRkZprFkwTnFQoiLI8LP7rqbpx97LD//+X1oKN14FJKa4byvrhx62EGcfsqf410EyyqB7Tsf4oJL14+RTdy97Vab91x2GXf9/G6u//fr2bRpU4UDRVwNO0WrbSYccOAq/uK0M3DmyUI8Jt1hu3jrhW+nCnUsLUj6dk648Vu38ru/MclRhz0Jd8PtaEpJReUZtETRlUe83J3pVPwP+zBVjdvODd/pK6OziD4zDaySLpf8/d/ww5/dy79+5jp2ZO2YkjGJOcEKIUdvgRhKhwUL2yxZupBrL/96dM0a+jogLvHRL1DZE8q63S5N8XvcYDYqHepsQ4tFqI8zXnX6q7no4ou5/647Oesta9ny8CPQ6dGwJk1t8IITT2TxiuVs/PD74iKoctKLf59DDz6EN73hTVy6YQOnvOgkmMkZAKs17Hfn3T/i/HeckwoYBJWA0kOdodYvukrcYapMLZjkyU8+gr9+w1nkvS5HHnkkd//sHpxzFQ6K+YGY4VOv/PS+21l3wZtx5shQJMvoNDqo76AhpjWstCrVYnluvW2aiy66hvPWvgx3+fcxN0lftQa9k5khPgYfzsWTKKuSxLHfEHLOP/9trNxvf84484wxbrGvjG2FI/dZyj//1alcf901fOHmW7HGQjJgBo3R5MjqFsRtGFi2fILv33ob19/wMIHFeImbZGpqigsvvJDT3vUvPLDlkUGoVnUlw9MDIPNZRsNn0B0H+2t8PI7njqVD/cfjd6wckZRtzzBwji2bNrF27dmIKh/56Ic59tePAXN4iyVazz1+DT/52Z04HyPhJUuWcN655/C6N/wtP7j5Zh457VWceebf8on168lcSkYDomV9otIlp3CxtKvaHKIUBFpSYrXIp0osntgxPcNNt3yX6677Ar1eh0988lMcf/yaiG0rJUmWQYxgBV3p0bUOZdQMguUhJqTTQU8pn+jMNZ6ShEBPBeMx2tZhxnWJZwrDninCG1Vj1+7dMU2EkYeC6d27o9KktT3mmKNZud/+camsZlUrFxWV0cRzwokn0VXh+S98Mc8++WUYDT54wze45ps3VtZZqsKFpO9W0GQX7UywfF9yWYBYC5Feko7w5Kc8mYULF8GWbTHoYlzhyqgyZaZKrjlms9QjDkfIs1BlEQeUUUAkpQ1CDO2D8E9vPo+pfRczvf0x6HX41ueup6lgEug5483r/j5iHVMcymOPbuWENWvo9eKEX/sXr8ZhrDCjKHoIEwSggaAurnrXQlT8ActQBk31azFKV4TpbpfXv/GN7LN0H7Zu24Zq4P1XbYwpGIsbS8zhDHzaZEEUCPG3xfveJJ6ckMCfxY+mMjHEcL5JL0xx4AHLOO9Na/jQl7Zx2+2bMe1j0ATVMDMKLTjppBcw0+1iGA8+8AAnn3xyTApbdMevePnL8T4r0Vytn/p8HR1RNnz6Gq7WHg0rKBL82CnxvN2Jj+tGH2o5hIYUXLr+TKbkJ2zf/CC5d/iQ0lWqzHRmWFQEHt2+HcTFAK42dD2BPUyZcz6GUP0gd3ZNm60fKc9Ja32UCillMWhAtMdEMYVXo7fpUbACLJBJgdNYHBoQXMgxgUbqL0MIM10yiXgp5AWmGmvixOi6MUeBVXRWv2M4kyF3UQfUQlEUbHlkCyHE5Gin06mMiwloL2dSMo5csoL7imkezqcRKfOHZeZUMEtJnqrrKqwCM3aj3P6A8Zb1X2Hx1GLuv38LJCukSQON6PJi1TfRAib8F9QImlfzFKCX50gxWOAL1k8FlVdM2FUEphGQRmIvuXrnkuLWAkagzAp/9DNfZtUKuOnGH9JjX5pAYTHls2DBFDfddDNbtmyFrEmVvN4DypyTGKw8gQptnSM48upoF54FDpYUynTDQYjVG54MdYGGBkDSsVaMvc0sZu2HxAHpbDMYjVQJ3UsVwYNHd+NLqsZVo5iGWPMnMW1kJrXdK5VRFSB4zwvX/B5H9xr8KJvh49/4Sip4jQFNFWCMGb1/WiyoNOixkOu+ugOxnZg0MfFAF4eg0qJfImdxYzqfKrnrYWF5JiypHn3cmbRVCX5Lz8ZS3VQLLhHeRJce1aeeRHEWIVKPJl/91mYcAQlLKLzHWU65ejt37uCtb12Hby+KEGmuetIhykIITLQncPkePT+WpMrDWSU8SROOcWSDfVR48f6r2O2aZBLdVGEBkVaqnKE6BipJZzlbFcAFZXGY5KiJfZkITUxzctpk2qDwXTA3tsZxbPmvU3CRJ1/Oo9Q+qxdVwCGHH8JZbzuXL1/7eW769CdSMicu7Nz4xWiksKW6og6RxbGy2wxn5SsLZQVLmquUzlZr22vA/wzIpr4V+uV04yTpko22VDbX3yh+4HGpNpnhUQTxmqCGIuIRB1oEWq02UlbhkN7lGaowN6vJN1FmBiEUs2PEPaA+mO2/iyFIii0LvAZWKJz1tN8EwBuoFwoNeFHUtC+wmgCy2vnoMJXJm0wDDZ2hl1SsqVA40msIo22Hj9xMQFNJmInFgMFcrbI5Ybzkwh/c/BDv37iRRRNtfuuZz+SRz2+mGwLF49XRmaZTiDpP2Rj9GGPJh/HOXpHOIyEyW4NkoS2epDkxsgBesogJrUDMarDcUT9ZKddsWAkNyMozS5utFmuYt9r6VNc01QgONSnEsaXd5AeTjhUaiwV8UtbgIh5sisfKN+hEBmILRcea9lIQAqiH0BB2tifpiiVhkFzDmDnJMIYq4VtUNBFHjHhKRnRg/ZsLpsgaDS5513pedeqpPPPYY7nxlpspLMypJ06EbKje5VdD81HeufuLteQOpCCTtO7iouwsxgsKdHo9/vt730vn+pHG23HIsLLcKtKs6jjOONWNRnLLmUGwGL3m4vnS7XfzX7fdgWaOlBLEm8RCSlUa9F+/HHxHRYB8rBwNIxchiKs2wO5Gxo72FE3zCWsCqTR/IEYWSWfYEZMuLZRnFw22SkYh4GUo0JZuJbqAZ5vNsKjYRavYzUeufjdvPOMsfG+G7/7gNrxPqZeRs2yYwlhGoDEPxXCEmtvcOxouw/qFkBkBR+6VSWccTIYL8e29QpLMxVMUPb76tRsqC9h/s68WuCVYkEEMsUtXGgdidqUbYIgytidItHI5Rkgpi4733D81gTARH1erKnLKypAyV7U3VLYIwiCWEUeu6Wht5HQhkjMIInScoRI4dvkyLnzefgwGAKU7HqTcCZ9+bAub7/gup//xicxMd/ij45/BHy1bwuSKA/C5gShZmBnlWQQ3C0+PT/Orzo70y7HBRd1LWE6z2IG6NiYF5prxvFxA6Q3AIaMu2r51y5wTrOiXNs2HjL4RGKjKrd0HYkBQG6f0iLO9SjkbSQ0nDB+Rm5sdV5a8FOJ4qOHZ3GzS0tZYpRu3gM7ggO4Ozll7Dj+e3s7as89mQecxNt1zJ0uLgma5qRpP4Lh0LP3qHfrjUbP+hzgekxbbrUHumoMB2R72l4mkurb5xyop/yQDyjg3A1Z9zc/hzJ9i3NHksz++m29/74e0gh8C0LOhGPDecdAhq/jaunfw8x1beO6a53PH/Q/z/i99lV1bd6V6xljv+P+aai9AQfleuaPj2jwwMUGYBxzIylBa9YmpRDxoT746auaoYaoMWVnyGX/Pc8R5tosudotrsTVr1aqKyz4HA6ZhumXLTsLDj4Eozz3wKK768te4YWsHt3CfWu76CezqXzDtaR5vL3ulrogx9SN4c+ROxuNZmdvoZGLgswzZW/84wpsN/i6xaN3QVPel/9+MzGeo+TUD4mYuvB+T9p3bpQ8+Gq3o2y+5PL6vu3hpdbIUGfzfo4i/tP+npFZfGbXMVePFCp+hcW0WBJQocy6mTkI+mtYY7mhAqfZUieaQw6/aLUM96zTXBMYHK32XJFg6NtMqWTyw035B3P4fotp7CdYXcu3+3M3/B7xFdwUCVjVbAAAAAElFTkSuQmCC;movable=0;resizable=0;rotatable=0;deletable=0;editable=0;connectable=0;" parent="1" vertex="1">
                    <mxGeometry x="606.5" y="125.5" width="162" height="30" as="geometry"/>
                </mxCell>
                <mxCell id="32" value="拆开看, 先看左边, 给a的x赋值,&lt;br&gt;也就是{ n: 1 }这个对象的x赋值;&lt;br&gt;再看右边这个表达式,&lt;br&gt;新开辟一块内存空间放{ n: 2 },&lt;br&gt;再赋值给a, a指向{ n: 2 },&lt;br&gt;a = { n: 2 }表达式的返回结果是{ n: 2 };" style="text;html=1;align=center;verticalAlign=middle;resizable=0;points=[];autosize=1;strokeColor=none;fillColor=none;movable=0;rotatable=0;deletable=0;editable=0;connectable=0;" parent="1" vertex="1">
                    <mxGeometry x="577.5" y="165.5" width="220" height="100" as="geometry"/>
                </mxCell>
                <mxCell id="34" value="继续看左边, 对象{ n: 1 }的x赋值为{ n: 2 },&lt;br&gt;也就是{ n: 1, x: { n: 2 } };" style="text;html=1;align=center;verticalAlign=middle;resizable=0;points=[];autosize=1;strokeColor=none;fillColor=none;movable=0;rotatable=0;deletable=0;editable=0;connectable=0;" parent="1" vertex="1">
                    <mxGeometry x="567.5" y="380" width="240" height="40" as="geometry"/>
                </mxCell>
            </root>
        </mxGraphModel>
    </diagram>
</mxfile>